<?xml version="1.0" encoding="UTF-8"?>
<svg id="Layer_1" data-name="Layer 1" xmlns="http://www.w3.org/2000/svg" version="1.1" viewBox="0 0 700 612">
  <defs>
    <style>
      .cls-1 {
        fill: #ffbfc3;
      }

      .cls-1, .cls-2, .cls-3, .cls-4, .cls-5, .cls-6, .cls-7 {
        stroke-linecap: round;
        stroke-miterlimit: 10;
        stroke-width: 8px;
      }

      .cls-1, .cls-5, .cls-7 {
        stroke: #ffbfc3;
      }

      .cls-2, .cls-4, .cls-6 {
        stroke: #000;
      }

      .cls-2, .cls-5, .cls-8 {
        fill: #231613;
      }

      .cls-3 {
        stroke: #ffbfc0;
      }

      .cls-3, .cls-4, .cls-7 {
        fill: none;
      }

      .cls-9 {
        fill: #423837;
      }

      .cls-9, .cls-10, .cls-11, .cls-8, .cls-12 {
        stroke-width: 0px;
      }

      .cls-10 {
        fill: #4f4745;
      }

      .cls-11, .cls-6 {
        fill: #000;
      }

      .cls-12 {
        fill: #302221;
      }
    </style>
  </defs>
  <path class="cls-11" d="M475,519c-3.6-2.7-4.2-9.4-1.3-14.3,4-6.9,8.2-13.7,12-20.7,1.3-2.5,2-5.6,2.2-8.5.3-6.1-.5-12.4.2-18.5,1.8-16.3-3.1-31.1-9.1-45.9-6.2-15.3-11.6-30.8-17.3-46.2-2-5.3-3-6-7.8-3-12.9,8.2-26.5,14.7-41.4,18.2-12.6,2.9-25.3,3.4-38.2,2.3-6.8-.6-13.7-.3-21.3-.7-16.8,0-32.9,0-48.9.2-4.5,17.1-9.7,34-13.2,51.2-1.5,7.4.7,15.5.7,23.3s3.6,20.1-.7,29.6c-3.8,8.4-8.8,16.4-13.9,24.2-1.3,2-5,3.3-7.7,3.6-5.4.4-11,.2-16.5-.3-6.7-.5-7.9-3.2-5-9.3,3.2-6.8,6.1-13.6,9.2-20.5.3-.6.7-1.3.6-1.9-.5-16.5,3.3-33.1-4.2-49.2-3.5-7.5-4.5-16.3-6.3-24.5-1.6-7-2.5-14.1-4.3-21-.5-2-2.7-4.4-4.6-5-11.2-3.7-17.6-12.2-21.4-22.3-4.5-11.9-7.5-24.4-11.1-36.7-1.7-5.7-3-11.6-4.9-17.3-.3-1.1-2.6-2.6-3.2-2.3-13.5,5.8-27.2,5.3-41.1,1.6-6.4-1.7-12.4-.5-18.7,1s-12.8,2.9-19.2,2.5c-13.3-.9-20.8-15.2-14.7-27.3,1.2-2.3,2.8-4.5,4.6-6.4,13.7-13.9,25.8-29,35.5-46,6.5-11.5,17.4-17,30.2-17.5,6.2-.2,9.5-2.7,12.8-7.3,5-7,12.1-10.4,20.8-8.9,2.2.4,5.2,2.5,5.7,4.3,1.3,5.1,2.1,10.5,2,15.7,0,6.5,4.4,11.8,10.5,10,23.9-7,48.2-4.3,72.4-4.1,13.3,0,26.5,2,39.8,3.1,3,.2,5.3,1.5,5.1,4.8-.2,3.7-3,4.1-5.8,3.9-12.1-.7-24.2-1.5-36.4-2.2-23.7-1.4-47.6-4.1-70.8,3.5-5.2,1.7-9.8,1.3-14.2-1.8-2.5-1.7-4.4-1.5-7.2,0-4.3,2.4-9.1,4.1-13.9,5.3-1.5.4-4.7-1.1-5.1-2.4-.5-1.4.9-4.2,2.2-5.3,1.7-1.4,4.2-1.8,6.4-2.6,7.2-2.4,11.5-16,6.6-21.8-.8-.9-3.5-1.5-4.3-.9-3.6,2.9-7.2,6-10.1,9.7-2,2.5-2.6,6.1-4.2,9-.8,1.4-2.8,3-4.1,2.9-1.5-.1-3.6-1.7-4.3-3.2-1.2-2.8-3-3.2-5.6-2.7-9,1.6-16,5.7-20.9,13.8-10.2,16.8-22.1,32.4-35.8,46.6-2.1,2.2-4,5.1-4.5,8-1.2,6.8,4,11.7,10.8,10.7,4.4-.7,8.9-1.4,13.2-2.7,9.4-3,18.8-2.4,28.1,0,13.3,3.6,25.3,1.5,36.5-6.3,4.5-3.1,7.5-1.8,8.7,3.4,4.1,17,7.8,34,12.5,50.8,2,7.1,5.3,14.1,9.5,20.2,2.7,3.9,7.8,7.1,12.4,8.2,5.3,1.3,7.1,3.9,8,8.5,2.6,12.7,5.2,25.4,8,38.1.9,4.2,3,8.1,4.1,12.3,1.5,5.4,3.1,10.9,3.6,16.4.6,6.3-.3,12.7.2,19,.8,10.8-1.3,20.8-6.3,30.3-.9,1.8-.4,4.3-.5,6.5,3.4-.5,8.4.2,10-1.8,4.9-6.2,8.5-13.5,12.5-20.4.7-1.2,1.1-2.9,1-4.3-.8-13.4-1.9-26.8-2.4-40.3-.2-4.5,1-9.2,2.1-13.7,3.6-14.5,7.5-29,11.3-43.5,1.7-6.5,2.6-7.3,9.1-7.5,11.1-.3,22.3-1,33.4-.9,15.5.2,30.9,1.1,46.4,1.6,16.1.5,31.6-2.7,46-9.5,9.1-4.3,17.4-10.2,25.9-15.5,4.1-2.6,7.5-2,9.6,2.9,5.2,12,10.3,24.2,15.1,36.4,4.9,12.6,9.7,25.2,14.1,37.9,1.5,4.5,2.5,9.3,2.6,14.1.4,12.3.4,24.7,0,37-.2,4.2-1.7,8.7-3.7,12.6-3,5.9-6.9,11.3-10.5,17-1.3,2.1-1.3,4.1,1.7,4.3,3.3.2,6.7.4,9.9-.3,3.1-.7,5.9-2.7,5.7-6.6-.2-5.9,2.9-10.6,4.9-15.8,3.2-8.6,5-17.8,6.8-26.9,2.5-12.9,4.5-25.9,6.9-38.8,1-5.3.5-10.1-1.9-15s-4.9-9.9-6.4-15.2c-.9-3.4-1-7.7.2-11.1,4.3-12.9,9.8-25.5,13.6-38.5,2.6-8.9,3.2-18.3,4.7-27.5,2.8-17.2,5.5-34.5,8.5-51.7,2.5-14.3-.5-18.9-12.9-27.4-18.1-12.3-38.2-14.7-59.3-9.5-27.1,6.7-54.6,10.6-82.6,9.3-7.5-.4-15-.7-22.4-1.4-2.8-.3-6.4-.7-6.3-4.9.1-3.4,3.4-4.3,8.1-4.2,14.4.6,28.9.9,43.3.8,24.2,0,47.2-8.2,70.9-10.8,26-2.8,49.1,5,66.9,25.1,1.9,2.1,3.1,5.2,3.7,8.1,4,17.5,4.9,35.2,3.7,53.1-.3,4.8-.3,9.7-.6,15.3v26.8c.3,9.4,2.3,18.3,6.8,26.6,5,9.2,4.5,19,1.7,28.6-2,6.9-4.2,13.7-6.8,20.3-.6,1.6-2.9,3.4-4.6,3.6-1.4.2-3.8-1.6-4.4-3.1-7.3-18-13.2-36.1-2.5-55,1.4-2.4,1.8-5.8,1.7-8.7,0-16-.5-31.9-.9-47.9,0-1.1,0-2.2-1.1-3.5-1.6,9.3-3.1,18.6-4.8,27.9-.9,5-1.7,10.2-3.3,15-3.8,11.4-7.9,22.6-12,33.8-1.4,3.9-1.3,7.4.7,11,1.7,3.2,3,6.7,4.5,10,3.8,8,3.9,16.1,2.1,24.8-3.4,16.6-5.9,33.4-8.9,50.1-1.2,6.7-2.2,13.5-7.3,18.8-.7.8-1.2,2.2-1.1,3.2,1,8.4-3.3,14.2-9.7,19.5h-25M543.5,389.9c1,4.2,1.9,8.4,3.1,13.6,5.7-9,5.4-25.4-.4-30.4-2.1,5.3-3.7,10.4-2.8,16.8h.1Z"/>
  <path class="cls-11" d="M155.2,251.6c1.7-3.4,3.7-6.6,7.6-5.2,2.4.9,5.1,3.4,5.8,5.8,1.4,4.6-1.9,8.2-6.6,8.4-4.7.2-6.9-2.5-6.8-9Z"/>
  <path class="cls-10" d="M304.5,381.9c15.6-.1,31.6-.3,48-.2-15.6.2-31.5.2-48,.2Z"/>
  <path class="cls-9" d="M475.3,519.3c7.8-.3,15.9-.3,24.5-.3-7.7.2-16,.4-24.5.3Z"/>
  <path class="cls-12" d="M549.9,343.4c0-5.5-.2-11.5,0-17.8v17.8Z"/>
  <path class="cls-12" d="M550,322.5c0-1.3-.2-3-.2-5,0,1.3.2,3,.2,5Z"/>
  <path class="cls-11" d="M543.4,389.5c-.8-6,.8-11.1,2.9-16.4,5.8,5,6.1,21.4.4,30.4-1.2-5.2-2.2-9.4-3.2-14h-.1Z"/>
  <path class="cls-8" d="M239.5,231.7"/>
  <path class="cls-5" d="M315.3,361.3"/>
  <path class="cls-6" d="M218,278.4c1.3-7.6-26.8-22.1-32.6-16.5-3.4,3.3-.5,15.3,8.3,20.7,10.2,6.2,23.5.7,24.3-4.1h0Z"/>
  <ellipse class="cls-6" cx="282.8" cy="285.3" rx="18.9" ry="13.2"/>
  <ellipse class="cls-2" cx="249.8" cy="323.3" rx="14.2" ry="8.3"/>
  <ellipse class="cls-1" cx="294.6" cy="352.5" rx="12.9" ry="6.8"/>
  <ellipse class="cls-1" cx="343.8" cy="345.7" rx="15.3" ry="11.2"/>
  <ellipse class="cls-1" cx="400" cy="344.5" rx="16.5" ry="10.8"/>
  <path class="cls-6" d="M207.7,272.9c8.6,9.8,12.5,13.8,14.4,15.5.3.3,1.6,1.4,3.3,3.1,1.6,1.6,2.8,2.9,3.6,3.8,1.4,2.4,2.8,4.8,4.2,7.3,3.3,6,6.3,12,8.9,17.7,5.1,2.2,10.3,4.5,15.4,6.7"/>
  <path class="cls-5" d="M320.4,356"/>
  <path class="cls-5" d="M320.4,345.7"/>
  <line class="cls-7" x1="359" y1="345.7" x2="382.8" y2="343.4"/>
  <path class="cls-6" d="M394.8,255.8c3.9-2.1,19.4,15.7,26.8,34.3,8.2,20.4,8.2,45.1,3.7,46.2-8.2,1.9-38-76.5-30.6-80.5h.1Z"/>
  <line class="cls-3" x1="263.9" y1="331.5" x2="282.8" y2="345.7"/>
  <line class="cls-7" x1="301.7" y1="352.5" x2="328.5" y2="345.7"/>
  <path class="cls-6" d="M433.6,259.6c6.5-2.8,24.3,11.6,25.6,31.1,1,16-9.4,32.1-16.1,31.2-11.9-1.6-20.1-57.7-9.5-62.3h0Z"/>
  <path class="cls-4" d="M454.6,272.3c.9-4.3,3.8-7.6,7.6-8.6,2.7-.7,5,0,6,.5.9,5.7,1.9,15,1,26.5-1.3,17-5.9,26.1-1,31.8,4.1,4.8,13.8,7.1,18.6,3.3,11.9-9.6-17.2-50.6-1.7-66.9,2.9-3.1,8-5.9,11.8-4.5,12,4.2,14.3,49.5,7.1,65.9-.6,1.4-2.9,6.2-1,10.4,1.5,3.2,5.4,6.1,8.5,5.5,7-1.3,11.7-21.4,9.8-39.4-2.2-21-12.4-32.7-6.5-39.9,2.6-3.2,7-3.9,10.3-4,1.5.8,2.7,1.6,3.7,2.5,9,7.8,7.8,21.7,7.5,24.9"/>
  <line class="cls-4" x1="218" y1="278.5" x2="276.5" y2="297.8"/>
  <path class="cls-6" d="M298.4,242.4c4.3-.9,14.1,20.6,15.9,40.5,2,21.9-5,45.6-9.7,45.3-8.4-.5-14.5-84.2-6.3-85.9h.1Z"/>
  <g>
    <path class="cls-11" d="M456.4,242.3c6.9,0,12.4,3.8,12.4,8.5s-5.6,8.5-12.4,8.5-12.4-3.8-12.4-8.5,5.6-8.5,12.4-8.5Z"/>
    <path class="cls-4" d="M468.8,250.8c0,4.7-5.6,8.5-12.4,8.5s-12.4-3.8-12.4-8.5,5.6-8.5,12.4-8.5,12.4,3.8,12.4,8.5Z"/>
  </g>
</svg>